<?xml version="1.0" encoding="UTF-8" standalone="no"?>
<!DOCTYPE svg PUBLIC "-//W3C//DTD SVG 1.1//EN" "http://www.w3.org/Graphics/SVG/1.1/DTD/svg11.dtd">
<svg version="1.1" xmlns="http://www.w3.org/2000/svg" xmlns:xlink="http://www.w3.org/1999/xlink" preserveAspectRatio="xMidYMid meet" viewBox="0 0 640 640" width="640" height="640"><defs><path d="M0 303.47L320 0L0 0L0 303.47Z" id="bb09DaB4o"></path><path d="M-61.82 758.54L1304.18 758.54L1304.18 -9.46L-61.82 -9.46L-61.82 758.54Z" id="a1lZ6BqU7"></path><radialGradient id="gradienta16Cui9TLH" gradientUnits="userSpaceOnUse" cx="621.18" cy="758.54" dx="621.18" dy="-9.46" r="768"><stop style="stop-color: #1121b9;stop-opacity: 1" offset="0%"></stop><stop style="stop-color: #010000;stop-opacity: 1" offset="100%"></stop></radialGradient><path d="M640 328.89L340.7 643.25L640 643.25L640 328.89Z" id="a4T32KmZ"></path><path d="M394.71 459.14C394.71 459.44 394.71 459.68 394.71 459.68C394.71 459.68 394.71 459.44 394.71 459.14C394.71 458.84 394.71 458.6 394.71 458.6C394.71 458.71 394.71 458.84 394.71 459.14Z" id="aYPdCNbta"></path><path d="M331.29 76.74C331.29 84.47 325.26 90.74 317.83 90.74C310.4 90.74 304.36 84.47 304.36 76.74C304.36 69.01 310.4 62.73 317.83 62.73C325.26 62.73 331.29 69.01 331.29 76.74Z" id="b24Lr3VH7n"></path><linearGradient id="gradienta1XlDZTflJ" gradientUnits="userSpaceOnUse" x1="317.83" y1="62.73" x2="317.83" y2="90.74"><stop style="stop-color: #123584;stop-opacity: 1" offset="0%"></stop><stop style="stop-color: #010000;stop-opacity: 1" offset="100%"></stop></linearGradient><path d="M331.29 123.91C331.29 131.64 325.26 137.92 317.83 137.92C310.4 137.92 304.36 131.64 304.36 123.91C304.36 116.18 310.4 109.91 317.83 109.91C325.26 109.91 331.29 116.18 331.29 123.91Z" id="bpra2xepo"></path><linearGradient id="gradiente4BFvTNArV" gradientUnits="userSpaceOnUse" x1="317.83" y1="109.91" x2="317.83" y2="137.92"><stop style="stop-color: #123584;stop-opacity: 1" offset="0%"></stop><stop style="stop-color: #010000;stop-opacity: 1" offset="100%"></stop></linearGradient><path d="M331.29 173.26C331.29 180.99 325.26 187.27 317.83 187.27C310.4 187.27 304.36 180.99 304.36 173.26C304.36 165.53 310.4 159.25 317.83 159.25C325.26 159.25 331.29 165.53 331.29 173.26Z" id="c1dukmnTK"></path><linearGradient id="gradientak8tCM8pX" gradientUnits="userSpaceOnUse" x1="317.83" y1="159.25" x2="317.83" y2="187.27"><stop style="stop-color: #123584;stop-opacity: 1" offset="0%"></stop><stop style="stop-color: #010000;stop-opacity: 1" offset="100%"></stop></linearGradient><path d="M380.64 123.91C380.64 131.64 374.6 137.92 367.17 137.92C359.74 137.92 353.71 131.64 353.71 123.91C353.71 116.18 359.74 109.91 367.17 109.91C374.6 109.91 380.64 116.18 380.64 123.91Z" id="aznzqJF50"></path><linearGradient id="gradientb6ulpSYP2g" gradientUnits="userSpaceOnUse" x1="367.17" y1="109.91" x2="367.17" y2="137.92"><stop style="stop-color: #123584;stop-opacity: 1" offset="0%"></stop><stop style="stop-color: #010000;stop-opacity: 1" offset="100%"></stop></linearGradient><path d="M557.81 245.65C557.81 253.38 551.78 259.66 544.35 259.66C536.92 259.66 530.88 253.38 530.88 245.65C530.88 237.92 536.92 231.64 544.35 231.64C551.78 231.64 557.81 237.92 557.81 245.65Z" id="b8E8qucQS"></path><linearGradient id="gradienth2zP4oNdzE" gradientUnits="userSpaceOnUse" x1="544.35" y1="231.64" x2="544.35" y2="259.66"><stop style="stop-color: #123584;stop-opacity: 1" offset="0%"></stop><stop style="stop-color: #010000;stop-opacity: 1" offset="100%"></stop></linearGradient><path d="M557.81 289.46C557.81 297.19 551.78 303.47 544.35 303.47C536.92 303.47 530.88 297.19 530.88 289.46C530.88 281.73 536.92 275.46 544.35 275.46C551.78 275.46 557.81 281.73 557.81 289.46Z" id="akPlx6Flj"></path><linearGradient id="gradientb10BpqD76h" gradientUnits="userSpaceOnUse" x1="544.35" y1="275.46" x2="544.35" y2="303.47"><stop style="stop-color: #123584;stop-opacity: 1" offset="0%"></stop><stop style="stop-color: #010000;stop-opacity: 1" offset="100%"></stop></linearGradient><path d="M557.81 337.72C557.81 345.45 551.78 351.73 544.35 351.73C536.92 351.73 530.88 345.45 530.88 337.72C530.88 329.99 536.92 323.72 544.35 323.72C551.78 323.72 557.81 329.99 557.81 337.72Z" id="a19WdAiIqF"></path><linearGradient id="gradientd1eHjajNj" gradientUnits="userSpaceOnUse" x1="544.35" y1="323.72" x2="544.35" y2="351.73"><stop style="stop-color: #123584;stop-opacity: 1" offset="0%"></stop><stop style="stop-color: #010000;stop-opacity: 1" offset="100%"></stop></linearGradient><path d="M609.33 289.46C609.33 297.19 603.3 303.47 595.87 303.47C588.44 303.47 582.41 297.19 582.41 289.46C582.41 281.73 588.44 275.46 595.87 275.46C603.3 275.46 609.33 281.73 609.33 289.46Z" id="c1ndABaciS"></path><linearGradient id="gradientc9L8OH8KI" gradientUnits="userSpaceOnUse" x1="595.87" y1="275.46" x2="595.87" y2="303.47"><stop style="stop-color: #123584;stop-opacity: 1" offset="0%"></stop><stop style="stop-color: #010000;stop-opacity: 1" offset="100%"></stop></linearGradient><path d="M46.29 381.96C46.29 389.69 40.26 395.96 32.83 395.96C25.4 395.96 19.36 389.69 19.36 381.96C19.36 374.23 25.4 367.95 32.83 367.95C40.26 367.95 46.29 374.23 46.29 381.96Z" id="b15R7SGGNZ"></path><linearGradient id="gradienta5vhoMk2Gq" gradientUnits="userSpaceOnUse" x1="32.83" y1="367.95" x2="32.83" y2="395.96"><stop style="stop-color: #123584;stop-opacity: 1" offset="0%"></stop><stop style="stop-color: #010000;stop-opacity: 1" offset="100%"></stop></linearGradient><path d="M46.29 431.3C46.29 439.03 40.26 445.31 32.83 445.31C25.4 445.31 19.36 439.03 19.36 431.3C19.36 423.57 25.4 417.3 32.83 417.3C40.26 417.3 46.29 423.57 46.29 431.3Z" id="b92aMofQg"></path><linearGradient id="gradientcbUeAAJOm" gradientUnits="userSpaceOnUse" x1="32.83" y1="417.3" x2="32.83" y2="445.31"><stop style="stop-color: #123584;stop-opacity: 1" offset="0%"></stop><stop style="stop-color: #010000;stop-opacity: 1" offset="100%"></stop></linearGradient><path d="M46.29 486.07C46.29 493.8 40.26 500.08 32.83 500.08C25.4 500.08 19.36 493.8 19.36 486.07C19.36 478.34 25.4 472.06 32.83 472.06C40.26 472.06 46.29 478.34 46.29 486.07Z" id="a4LNU2ZTc1"></path><linearGradient id="gradienthYcp0mD07" gradientUnits="userSpaceOnUse" x1="32.83" y1="472.06" x2="32.83" y2="500.08"><stop style="stop-color: #123584;stop-opacity: 1" offset="0%"></stop><stop style="stop-color: #010000;stop-opacity: 1" offset="100%"></stop></linearGradient><path d="M97.81 431.3C97.81 439.03 91.78 445.31 84.35 445.31C76.92 445.31 70.88 439.03 70.88 431.3C70.88 423.57 76.92 417.3 84.35 417.3C91.78 417.3 97.81 423.57 97.81 431.3Z" id="d1aTEkU1Kp"></path><linearGradient id="gradientaZ5ds8rk" gradientUnits="userSpaceOnUse" x1="84.35" y1="417.3" x2="84.35" y2="445.31"><stop style="stop-color: #123584;stop-opacity: 1" offset="0%"></stop><stop style="stop-color: #010000;stop-opacity: 1" offset="100%"></stop></linearGradient><path d="M0 252.38L230.97 0L0 0L0 252.38Z" id="a2li5qcDw"></path></defs><g><g><g><use xlink:href="#bb09DaB4o" opacity="1" fill="#f5fbf5" fill-opacity="1"></use></g><g><use xlink:href="#a1lZ6BqU7" opacity="1" fill="url(#gradienta16Cui9TLH)"></use></g><g><use xlink:href="#a4T32KmZ" opacity="1" fill="#f5fbf5" fill-opacity="1"></use></g><g><use xlink:href="#aYPdCNbta" opacity="1" fill="#f5fbf5" fill-opacity="1"></use></g><g><use xlink:href="#b24Lr3VH7n" opacity="1" fill="url(#gradienta1XlDZTflJ)"></use></g><g><use xlink:href="#bpra2xepo" opacity="1" fill="url(#gradiente4BFvTNArV)"></use></g><g><use xlink:href="#c1dukmnTK" opacity="1" fill="url(#gradientak8tCM8pX)"></use></g><g><use xlink:href="#aznzqJF50" opacity="1" fill="url(#gradientb6ulpSYP2g)"></use></g><g><use xlink:href="#b8E8qucQS" opacity="1" fill="url(#gradienth2zP4oNdzE)"></use></g><g><use xlink:href="#akPlx6Flj" opacity="1" fill="url(#gradientb10BpqD76h)"></use></g><g><use xlink:href="#a19WdAiIqF" opacity="1" fill="url(#gradientd1eHjajNj)"></use></g><g><use xlink:href="#c1ndABaciS" opacity="1" fill="url(#gradientc9L8OH8KI)"></use></g><g><use xlink:href="#b15R7SGGNZ" opacity="1" fill="url(#gradienta5vhoMk2Gq)"></use></g><g><use xlink:href="#b92aMofQg" opacity="1" fill="url(#gradientcbUeAAJOm)"></use></g><g><use xlink:href="#a4LNU2ZTc1" opacity="1" fill="url(#gradienthYcp0mD07)"></use></g><g><use xlink:href="#d1aTEkU1Kp" opacity="1" fill="url(#gradientaZ5ds8rk)"></use></g><g><use xlink:href="#a2li5qcDw" opacity="1" fill="#f5fbf5" fill-opacity="1"></use></g></g></g></svg>